IntermediateCondensed.ufo
<glyph name="comma" format="1">
  <advance width="221.13282725"/>
  <unicode hex="002C"/>
  <outline>
    <contour>
      <point x="180.17060975" y="0.0" type="line"/>
      <point x="180.17060975" y="234.226695" type="line"/>
      <point x="41.32762475" y="234.226695" type="line"/>
      <point x="41.32762475" y="0.0" type="line"/>
      <point x="103.153484" y="-13.076742" type="line"/>
      <point x="94.05726225000001" y="12.0" type="line"/>
      <point x="72.05726225000001" y="-124.7296375" type="line"/>
      <point x="122.13282725" y="-126.7296375" type="line"/>
    </contour>
  </outline>
</glyph>
<glyph name="period" format="1">
  <advance width="220.76742000000002"/>
  <unicode hex="002E"/>
  <outline>
    <contour>
      <point x="40.962217499999994" y="0.0" type="line"/>
      <point x="179.8052025" y="0.0" type="line"/>
      <point x="179.8052025" y="234.226695" type="line"/>
      <point x="40.962217499999994" y="234.226695" type="line"/>
    </contour>
  </outline>
</glyph>
<glyph name="A" format="1">
  <advance width="623.0696800000001"/>
  <unicode hex="0041"/>
  <outline>
    <contour>
      <point x="17" y="0" type="line"/>
      <point x="200" y="0" type="line"/>
      <point x="301" y="763" type="line"/>
      <point x="139" y="763" type="line"/>
    </contour>
    <contour>
      <point x="101" y="136" type="line"/>
      <point x="490" y="136" type="line"/>
      <point x="490" y="282" type="line"/>
      <point x="101" y="282" type="line"/>
    </contour>
    <contour>
      <point x="388" y="0" type="line"/>
      <point x="606" y="0" type="line"/>
      <point x="483" y="763" type="line"/>
      <point x="280" y="763" type="line"/>
    </contour>
    <contour>
      <point x="193" y="584" type="line"/>
      <point x="390" y="584" type="line"/>
      <point x="390" y="763" type="line"/>
      <point x="193" y="763" type="line"/>
    </contour>
  </outline>
</glyph>
<glyph name="B" format="1">
  <advance width="612.43626425"/>
  <unicode hex="0042"/>
  <outline>
    <contour>
      <point x="40.962217499999994" y="0.0" type="line"/>
      <point x="252.30226000000002" y="0.0" type="line"/>
      <point x="252.30226000000002" y="763.459275" type="line"/>
      <point x="40.962217499999994" y="763.459275" type="line"/>
    </contour>
    <contour>
      <point x="207" y="322" type="line"/>
      <point x="295" y="322" type="line" smooth="yes"/>
      <point x="357.0" y="322"/>
      <point x="391.0" y="296.8571428571429"/>
      <point x="391" y="242" type="curve" smooth="yes"/>
      <point x="391.0" y="189.71887922899427"/>
      <point x="356.59445625" y="164.1877355"/>
      <point x="294.70780375000004" y="164.1877355" type="curve" smooth="yes"/>
      <point x="206.91855" y="164.1877355" type="line"/>
      <point x="206.91855" y="0.0" type="line"/>
      <point x="310.7261065" y="0.0" type="line" smooth="yes"/>
      <point x="531.01241775" y="0.0"/>
      <point x="585.12811925" y="89.98052025"/>
      <point x="585.12811925" y="212.82585925" type="curve" smooth="yes"/>
      <point x="585.12811925" y="325.67119825"/>
      <point x="530.12811925" y="390.690678"/>
      <point x="425.531309" y="407.32527075" type="curve"/>
      <point x="425.531309" y="367.13400425" type="line"/>
      <point x="508.74323225" y="386.153484"/>
      <point x="570.51182925" y="442.17296375"/>
      <point x="570.51182925" y="546.1912665" type="curve" smooth="yes"/>
      <point x="570.51182925" y="677.01712575"/>
      <point x="503.70427275" y="763.459275"/>
      <point x="295.47522375" y="763.459275" type="curve" smooth="yes"/>
      <point x="206.91855" y="763.459275" type="line"/>
      <point x="206.91855" y="606.8866525" type="line"/>
      <point x="280.09151375" y="606.8866525" type="line" smooth="yes"/>
      <point x="341.97816625" y="606.8866525"/>
      <point x="377.0" y="581.3633459518055"/>
      <point x="377" y="531" type="curve" smooth="yes"/>
      <point x="377.0" y="475.94117647058823"/>
      <point x="342.0" y="453"/>
      <point x="280" y="453" type="curve" smooth="yes"/>
      <point x="207" y="453" type="line"/>
    </contour>
  </outline>
</glyph>
<glyph name="C" format="1">
  <advance width="700.31938575"/>
  <unicode hex="0043"/>
  <outline>
    <contour>
      <point x="472.90142425" y="336.3435735" type="line"/>
      <point x="466.88194450000003" y="211.28395725000001"/>
      <point x="430.82350525000004" y="170.687147"/>
      <point x="362.41913850000003" y="170.687147" type="curve" smooth="yes"/>
      <point x="353.32291675" y="170.687147" type="line" smooth="yes"/>
      <point x="283.43744125" y="170.687147"/>
      <point x="248.09033675" y="227.1109935"/>
      <point x="248.09033675" y="384.36423025" type="curve" smooth="yes"/>
      <point x="248.09033675" y="538.71368875"/>
      <point x="283.43744125" y="592.772128"/>
      <point x="353.32291675" y="592.772128" type="curve" smooth="yes"/>
      <point x="362.41913850000003" y="592.772128" type="line" smooth="yes"/>
      <point x="430.458098" y="592.772128"/>
      <point x="466.51653725" y="554.540725"/>
      <point x="472.90142425" y="433.1157015" type="curve"/>
      <point x="671.1842045000001" y="453.3459275" type="line"/>
      <point x="652.915019" y="674.8063795"/>
      <point x="539.39730475" y="773.459275"/>
      <point x="367.4958805" y="773.459275" type="curve" smooth="yes"/>
      <point x="347.611582" y="773.459275" type="line" smooth="yes"/>
      <point x="151.7296375" y="773.459275"/>
      <point x="29.13518125" y="655.613936"/>
      <point x="29.13518125" y="384.36423025" type="curve" smooth="yes"/>
      <point x="29.13518125" y="110.845339"/>
      <point x="151.7296375" y="-10.0"/>
      <point x="347.611582" y="-10.0" type="curve" smooth="yes"/>
      <point x="367.4958805" y="-10.0" type="line" smooth="yes"/>
      <point x="539.762712" y="-10.0"/>
      <point x="653.915019" y="91.28748825"/>
      <point x="671.1842045000001" y="316.382533" type="curve"/>
    </contour>
  </outline>
</glyph>
<glyph name="D" format="1">
  <advance width="647.89671625"/>
  <unicode hex="0044"/>
  <outline>
    <contour>
      <point x="40.962217499999994" y="0.0" type="line"/>
      <point x="238.97581225000002" y="0.0" type="line"/>
      <point x="238.97581225000002" y="763.459275" type="line"/>
      <point x="40.962217499999994" y="763.459275" type="line"/>
    </contour>
    <contour>
      <point x="198.32291675" y="589.1180555" type="line"/>
      <point x="279.9575095" y="589.1180555" type="line" smooth="yes"/>
      <point x="356.78572275" y="589.1180555"/>
      <point x="399.8063795" y="538.71368875"/>
      <point x="399.8063795" y="384.36423025" type="curve" smooth="yes"/>
      <point x="399.8063795" y="227.1109935"/>
      <point x="356.78572275" y="174.34121950000002"/>
      <point x="279.9575095" y="174.34121950000002" type="curve" smooth="yes"/>
      <point x="193.24617475000002" y="174.34121950000002" type="line"/>
      <point x="193.24617475000002" y="0.0" type="line"/>
      <point x="285.0342515" y="0.0" type="line" smooth="yes"/>
      <point x="487.12811925" y="0.0"/>
      <point x="618.761535" y="115.28748825"/>
      <point x="618.761535" y="384.36423025" type="curve" smooth="yes"/>
      <point x="618.761535" y="651.17178675"/>
      <point x="487.12811925" y="763.459275"/>
      <point x="285.0342515" y="763.459275" type="curve" smooth="yes"/>
      <point x="198.32291675" y="763.459275" type="line"/>
    </contour>
  </outline>
</glyph>
<glyph name="H" format="1">
  <advance width="644.0318975"/>
  <unicode hex="0048"/>
  <outline>
    <contour>
      <point x="40.962217499999994" y="0.0" type="line"/>
      <point x="258.6481875" y="0.0" type="line"/>
      <point x="258.6481875" y="763.459275" type="line"/>
      <point x="40.962217499999994" y="763.459275" type="line"/>
    </contour>
    <contour>
      <point x="118.07556500000001" y="287.0401365" type="line"/>
      <point x="525.9563325" y="287.0401365" type="line"/>
      <point x="526" y="470" type="line"/>
      <point x="118" y="470" type="line"/>
    </contour>
    <contour>
      <point x="385.38371" y="0.0" type="line"/>
      <point x="603.0696800000001" y="0.0" type="line"/>
      <point x="603.0696800000001" y="763.459275" type="line"/>
      <point x="385.38371" y="763.459275" type="line"/>
    </contour>
  </outline>
</glyph>
<glyph name="I" format="1">
  <advance width="472.30226000000005"/>
  <unicode hex="0049"/>
  <outline>
    <contour>
      <point x="127.308145" y="0.0" type="line"/>
      <point x="344.994115" y="0.0" type="line"/>
      <point x="344.994115" y="763.459275" type="line"/>
      <point x="127.308145" y="763.459275" type="line"/>
    </contour>
    <contour>
      <point x="40.962217499999994" y="572.618644" type="line"/>
      <point x="431.3400425" y="572.618644" type="line"/>
      <point x="431.3400425" y="763.459275" type="line"/>
      <point x="40.962217499999994" y="763.459275" type="line"/>
    </contour>
    <contour>
      <point x="40.962217499999994" y="0.0" type="line"/>
      <point x="431.3400425" y="0.0" type="line"/>
      <point x="431.3400425" y="190.840631" type="line"/>
      <point x="40.962217499999994" y="190.840631" type="line"/>
    </contour>
  </outline>
</glyph>
<glyph name="J" format="1">
  <advance width="557.51300625"/>
  <unicode hex="004A"/>
  <outline>
    <contour>
      <point x="187.997646" y="-10.0" type="curve" smooth="yes"/>
      <point x="392.95633250000003" y="-10.0"/>
      <point x="516.55078875" y="84.17178675"/>
      <point x="516.55078875" y="298.78572275" type="curve" smooth="yes"/>
      <point x="516.55078875" y="763.459275" type="line"/>
      <point x="297.59563325" y="763.459275" type="line"/>
      <point x="298" y="338" type="line" smooth="yes"/>
      <point x="298" y="221"/>
      <point x="251" y="181"/>
      <point x="165" y="181" type="curve" smooth="yes"/>
      <point x="139" y="181"/>
      <point x="116" y="184"/>
      <point x="90" y="191" type="curve"/>
      <point x="40.962217499999994" y="11.59563325" type="line"/>
      <point x="83.44214925" y="-2.9232579999999997"/>
      <point x="132.99882300000002" y="-10.0"/>
    </contour>
  </outline>
</glyph>
<glyph name="K" format="1">
  <advance width="680.683616"/>
  <unicode hex="004B"/>
  <outline>
    <contour>
      <point x="40.962217499999994" y="0.0" type="line"/>
      <point x="258.6481875" y="0.0" type="line"/>
      <point x="258.6481875" y="763.459275" type="line"/>
      <point x="40.962217499999994" y="763.459275" type="line"/>
    </contour>
    <contour>
      <point x="232.6481875" y="320.0389595" type="line"/>
      <point x="282.70662675" y="320.0389595" type="line"/>
      <point x="422.7284605" y="0.0" type="line"/>
      <point x="663.3754710000001" y="0.0" type="line"/>
      <point x="470.31585475" y="473.43861825" type="line"/>
      <point x="294.8795905" y="422.0366055" type="line"/>
      <point x="232.6481875" y="422.0366055" type="line"/>
    </contour>
    <contour>
      <point x="278.20603825" y="399.32527075" type="line"/>
      <point x="444.81644325" y="325.308145" type="line"/>
      <point x="657.27924925" y="763.459275" type="line"/>
      <point x="429.78572275" y="763.459275" type="line"/>
    </contour>
  </outline>
</glyph>
<glyph name="L" format="1">
  <advance width="487.8807675"/>
  <unicode hex="004C"/>
  <outline>
    <contour>
      <point x="40.962217499999994" y="0.0" type="line"/>
      <point x="258.6481875" y="0.0" type="line"/>
      <point x="258.6481875" y="763.459275" type="line"/>
      <point x="40.962217499999994" y="763.459275" type="line"/>
    </contour>
    <contour>
      <point x="111.7296375" y="0.0" type="line"/>
      <point x="460.5726225" y="0.0" type="line"/>
      <point x="460.5726225" y="171.8028485" type="line"/>
      <point x="111.7296375" y="171.8028485" type="line"/>
    </contour>
  </outline>
</glyph>
<glyph name="M" format="1">
  <advance width="707.0307205"/>
  <unicode hex="004D"/>
  <outline>
    <contour>
      <point x="40.962217499999994" y="0.0" type="line"/>
      <point x="214.226695" y="0.0" type="line"/>
      <point x="214.226695" y="763.459275" type="line"/>
      <point x="40.962217499999994" y="763.459275" type="line"/>
    </contour>
    <contour>
      <point x="666.068503" y="0.0" type="line"/>
      <point x="666.068503" y="763.459275" type="line"/>
      <point x="492.8040255" y="763.459275" type="line"/>
      <point x="492.8040255" y="0.0" type="line"/>
    </contour>
    <contour>
      <point x="588" y="528" type="line"/>
      <point x="493" y="763" type="line"/>
      <point x="341" y="475" type="line"/>
      <point x="366.149953" y="474.62988475" type="line"/>
      <point x="214.226695" y="763.459275" type="line"/>
      <point x="119" y="528" type="line"/>
      <point x="322" y="202" type="line"/>
      <point x="385" y="202" type="line"/>
    </contour>
  </outline>
</glyph>
<glyph name="N" format="1">
  <advance width="644.0318975"/>
  <unicode hex="004E"/>
  <outline>
    <contour>
      <point x="40.962217499999994" y="0.0" type="line"/>
      <point x="214.226695" y="0.0" type="line"/>
      <point x="214.226695" y="763.459275" type="line"/>
      <point x="40.962217499999994" y="763.459275" type="line"/>
    </contour>
    <contour>
      <point x="91.230226" y="566.0413135" type="line"/>
      <point x="429.8052025" y="0.0" type="line"/>
      <point x="552.8016715" y="197.41796150000002" type="line"/>
      <point x="214.226695" y="763.459275" type="line"/>
    </contour>
    <contour>
      <point x="429.8052025" y="0.0" type="line"/>
      <point x="603.0696800000001" y="0.0" type="line"/>
      <point x="603.0696800000001" y="763.459275" type="line"/>
      <point x="429.8052025" y="763.459275" type="line"/>
    </contour>
  </outline>
</glyph>
<glyph name="O" format="1">
  <advance width="715.74205525"/>
  <unicode hex="004F"/>
  <outline>
    <contour>
      <point x="347.611582" y="-10.0" type="curve" smooth="yes"/>
      <point x="367.4958805" y="-10.0" type="line" smooth="yes"/>
      <point x="563.01241775" y="-10.0"/>
      <point x="686.6068740000001" y="110.845339"/>
      <point x="686.6068740000001" y="384.36423025" type="curve" smooth="yes"/>
      <point x="686.6068740000001" y="655.613936"/>
      <point x="563.01241775" y="773.459275"/>
      <point x="367.4958805" y="773.459275" type="curve" smooth="yes"/>
      <point x="347.611582" y="773.459275" type="line" smooth="yes"/>
      <point x="151.7296375" y="773.459275"/>
      <point x="29.13518125" y="655.613936"/>
      <point x="29.13518125" y="384.36423025" type="curve" smooth="yes"/>
      <point x="29.13518125" y="110.845339"/>
      <point x="151.7296375" y="-10.0"/>
    </contour>
    <contour>
      <point x="353.32291675" y="170.687147" type="line" smooth="yes"/>
      <point x="283.43744125" y="170.687147"/>
      <point x="248.09033675" y="227.1109935"/>
      <point x="248.09033675" y="384.36423025" type="curve" smooth="yes"/>
      <point x="248.09033675" y="538.71368875"/>
      <point x="283.43744125" y="592.772128"/>
      <point x="353.32291675" y="592.772128" type="curve" smooth="yes"/>
      <point x="362.41913850000003" y="592.772128" type="line" smooth="yes"/>
      <point x="432.67002125" y="592.772128"/>
      <point x="467.6517185" y="538.71368875"/>
      <point x="467.6517185" y="384.36423025" type="curve" smooth="yes"/>
      <point x="467.6517185" y="227.1109935"/>
      <point x="432.67002125" y="170.687147"/>
      <point x="362.41913850000003" y="170.687147" type="curve" smooth="yes"/>
    </contour>
  </outline>
</glyph>
<glyph name="P" format="1">
  <advance width="597.81997425"/>
  <unicode hex="0050"/>
  <outline>
    <contour>
      <point x="40.962217499999994" y="0.0" type="line"/>
      <point x="258.6481875" y="0.0" type="line"/>
      <point x="258.6481875" y="763.459275" type="line"/>
      <point x="40.962217499999994" y="763.459275" type="line"/>
    </contour>
    <contour>
      <point x="206.91855" y="588.925612" type="line"/>
      <point x="280.09151375" y="588.925612" type="line" smooth="yes"/>
      <point x="341.97816625" y="588.925612"/>
      <point x="370.32527075" y="547.86599575"/>
      <point x="370.32527075" y="473.24852875" type="curve" smooth="yes"/>
      <point x="370.32527075" y="395.458098"/>
      <point x="341.97816625" y="356.66766725"/>
      <point x="280.09151375" y="356.66766725" type="curve" smooth="yes"/>
      <point x="206.91855" y="356.66766725" type="line"/>
      <point x="206.91855" y="181.4994115" type="line"/>
      <point x="291.0330745" y="181.4994115" type="line" smooth="yes"/>
      <point x="497.35834525" y="181.4994115"/>
      <point x="570.51182925" y="289.17296375"/>
      <point x="570.51182925" y="473.24852875" type="curve" smooth="yes"/>
      <point x="570.51182925" y="656.78572275"/>
      <point x="497.35834525" y="764.09386775"/>
      <point x="291.66766725" y="764.09386775" type="curve" smooth="yes"/>
      <point x="206.91855" y="764.09386775" type="line"/>
    </contour>
  </outline>
</glyph>
<glyph name="Q" format="1">
  <advance width="715.74205525"/>
  <unicode hex="0051"/>
  <outline>
    <contour>
      <point x="380.76742" y="-130.0" type="line"/>
      <point x="593.5690915" y="-130.0" type="line"/>
      <point x="487.58857125" y="112.63106175" type="line"/>
      <point x="296.305791" y="106.05373125000001" type="line"/>
    </contour>
    <component base="O"/>
  </outline>
</glyph>
<glyph name="R" format="1">
  <advance width="608.1853815"/>
  <unicode hex="0052"/>
  <outline>
    <contour>
      <point x="387.11334750000003" y="0.0" type="line"/>
      <point x="580.8772365" y="0.0" type="line"/>
      <point x="512.89553925" y="184.32527075000002" type="line" smooth="yes"/>
      <point x="494.4144305" y="233.5749765"/>
      <point x="465.62635375" y="264.17060975000004"/>
      <point x="414.43508725000004" y="264.17060975000004" type="curve"/>
      <point x="303.41913850000003" y="264.17060975000004" type="line"/>
    </contour>
    <contour>
      <point x="40.962217499999994" y="0.0" type="line"/>
      <point x="258.6481875" y="0.0" type="line"/>
      <point x="258.6481875" y="763.459275" type="line"/>
      <point x="40.962217499999994" y="763.459275" type="line"/>
    </contour>
    <contour>
      <point x="206.91855" y="588.925612" type="line"/>
      <point x="286.43744125" y="588.925612" type="line" smooth="yes"/>
      <point x="348.32409375" y="588.925612"/>
      <point x="376.67119825" y="546.59681025"/>
      <point x="376.67119825" y="466.90260125" type="curve" smooth="yes"/>
      <point x="376.67119825" y="396.98911860987965"/>
      <point x="348.0" y="364"/>
      <point x="286" y="364" type="curve" smooth="yes"/>
      <point x="207" y="364" type="line"/>
      <point x="206.91855" y="226.55549675" type="line"/>
      <point x="291.0330745" y="226.55549675" type="line" smooth="yes"/>
      <point x="484.66649025000004" y="226.55549675"/>
      <point x="570.51182925" y="325.34475050000003"/>
      <point x="570.51182925" y="492.28631125" type="curve" smooth="yes"/>
      <point x="570.51182925" y="663.13165025"/>
      <point x="478.32056275" y="764.09386775"/>
      <point x="284.05255425" y="764.09386775" type="curve" smooth="yes"/>
      <point x="206.91855" y="764.09386775" type="line"/>
    </contour>
  </outline>
</glyph>
<glyph name="S" format="1">
  <advance width="571.66649025"/>
  <unicode hex="0053"/>
  <outline>
    <contour>
      <point x="542.531309" y="225.53601700000002" type="curve" smooth="yes"/>
      <point x="542.531309" y="385.488923958874"/>
      <point x="458.9517375536652" y="434.01063409834495"/>
      <point x="341" y="460" type="curve" smooth="yes"/>
      <point x="282" y="473" type="line" smooth="yes"/>
      <point x="228.22334064677347" y="484.84909443376176"/>
      <point x="211.0" y="502.8666666666667"/>
      <point x="211" y="537" type="curve" smooth="yes"/>
      <point x="211.0" y="575.3524940335567"/>
      <point x="244.24617475000002" y="594.94509175"/>
      <point x="296.93920675000004" y="594.94509175" type="curve" smooth="yes"/>
      <point x="316.36187625" y="594.94509175" type="line" smooth="yes"/>
      <point x="380.47640075000004" y="594.94509175"/>
      <point x="425.78336875" y="585.3104989999999"/>
      <point x="507.32056275" y="570.1947975" type="curve"/>
      <point x="522.224341" y="741.36305325" type="line"/>
      <point x="470.35952225" y="761.2668315"/>
      <point x="394.39965875" y="773.459275"/>
      <point x="326.51536025" y="773.459275" type="curve" smooth="yes"/>
      <point x="282.70898075" y="773.459275" type="line" smooth="yes"/>
      <point x="106.2691855" y="773.459275"/>
      <point x="29.13518125" y="673.690678"/>
      <point x="29.13518125" y="542.36540725" type="curve" smooth="yes"/>
      <point x="29.13518125" y="384.0898028041373"/>
      <point x="117.76145249215831" y="326.4895503294115"/>
      <point x="227" y="305" type="curve" smooth="yes"/>
      <point x="288" y="293" type="line" smooth="yes"/>
      <point x="342.96595597286023" y="282.1870250545193"/>
      <point x="361.0" y="261.0952380952381"/>
      <point x="361" y="226" type="curve" smooth="yes"/>
      <point x="361.0" y="188.61778350814222"/>
      <point x="335.78572275" y="168.8795905"/>
      <point x="286.63106175" y="168.8795905" type="curve" smooth="yes"/>
      <point x="250.074388" y="168.8795905" type="line" smooth="yes"/>
      <point x="164.09504475" y="168.8795905"/>
      <point x="109.24970575" y="178.51418325"/>
      <point x="44.0389595" y="199.97581225000002" type="curve"/>
      <point x="29.13518125" y="22.096221749999998" type="line"/>
      <point x="87.71133475" y="5.0"/>
      <point x="179.382533" y="-10.0"/>
      <point x="243.920904" y="-10.0" type="curve" smooth="yes"/>
      <point x="274.40083575" y="-10.0" type="line" smooth="yes"/>
      <point x="490.62753075" y="-10.0"/>
      <point x="542.531309" y="98.6528955"/>
    </contour>
  </outline>
</glyph>
<glyph name="T" format="1">
  <advance width="539.610405"/>
  <unicode hex="0054"/>
  <outline>
    <contour>
      <point x="160.9622175" y="0.0" type="line"/>
      <point x="378.6481875" y="0.0" type="line"/>
      <point x="378.6481875" y="763.459275" type="line"/>
      <point x="160.9622175" y="763.459275" type="line"/>
    </contour>
    <contour>
      <point x="27.308145" y="591.6564265" type="line"/>
      <point x="512.30226" y="591.6564265" type="line"/>
      <point x="512.30226" y="763.459275" type="line"/>
      <point x="27.308145" y="763.459275" type="line"/>
    </contour>
  </outline>
</glyph>
<glyph name="U" format="1">
  <advance width="670.86011075"/>
  <unicode hex="0055"/>
  <outline>
    <contour>
      <point x="334.97816625" y="-10.0" type="curve" smooth="yes"/>
      <point x="539.9368527500001" y="-10.0"/>
      <point x="629.89789325" y="84.17178675"/>
      <point x="629.89789325" y="298.78572275" type="curve" smooth="yes"/>
      <point x="629.89789325" y="763.459275" type="line"/>
      <point x="412.21192325" y="763.459275" type="line"/>
      <point x="412.21192325" y="267.05608525" type="line" smooth="yes"/>
      <point x="412.21192325" y="193.01477175000002"/>
      <point x="385.47993175" y="170.687147"/>
      <point x="334.97816625" y="170.687147" type="curve" smooth="yes"/>
      <point x="285.74558625" y="170.687147"/>
      <point x="258.6481875" y="193.01477175000002"/>
      <point x="258.6481875" y="267.05608525" type="curve" smooth="yes"/>
      <point x="258.6481875" y="763.459275" type="line"/>
      <point x="40.962217499999994" y="763.459275" type="line"/>
      <point x="40.962217499999994" y="298.78572275" type="line" smooth="yes"/>
      <point x="40.962217499999994" y="84.17178675"/>
      <point x="128.6540725" y="-10.0"/>
    </contour>
  </outline>
</glyph>
<glyph name="V" format="1">
  <advance width="623.0696800000001"/>
  <unicode hex="0056"/>
  <outline>
    <contour>
      <point x="605.761535" y="763.459275" type="line"/>
      <point x="430.67002125" y="763.459275" type="line"/>
      <point x="329.86128775" y="0.0" type="line"/>
      <point x="484.08798275000004" y="0.0" type="line"/>
    </contour>
    <contour>
      <point x="249.51300625000002" y="763.459275" type="line"/>
      <point x="17.308145" y="763.459275" type="line"/>
      <point x="140.25088275" y="0.0" type="line"/>
      <point x="357.93685275" y="0.0" type="line"/>
    </contour>
    <contour>
      <point x="429.66649025000004" y="179.24499775" type="line"/>
      <point x="232.74794025" y="179.24499775" type="line"/>
      <point x="232.74794025" y="0.0" type="line"/>
      <point x="429.66649025000004" y="0.0" type="line"/>
    </contour>
  </outline>
</glyph>
